
<svg width="957px" height="190px" viewBox="0 0 957 190" version="1.1" xmlns="http://www.w3.org/2000/svg" xmlns:xlink="http://www.w3.org/1999/xlink">
    <g id="Page-1" stroke="none" stroke-width="1" fill="none" fill-rule="evenodd">
        <g id="GUI" transform="translate(-0.000000, -380.000000)" fill-rule="nonzero">
            <g id="g13806" transform="translate(0.000000, 380.916556)">
                <g id="g13808">
                    <g id="g13810" transform="translate(777.948080, 92.447111) scale(-1, 1) translate(-777.948080, -92.447111) translate(599.098175, 0.000006)">
                        <g id="g13812" transform="translate(101.424146, 110.106709)">
                            <path d="M0,3.73929313 C2.53171061,46.7605884 35.3710051,67.4623425 35.3710051,67.4623425 C55.6886179,71.8210811 146.137647,74.3352525 256.275664,74.7875017 L256.275664,4.86622808 L0,3.73929313 Z" id="path13814" fill="#002028"></path>
                            <path d="M5.38715889,0.00172113703 C9.51870734,43.7891682 39.240285,62.1451766 39.240285,62.1451766 C65.5835166,66.2431219 166.978977,69.5877828 166.978977,69.5877828 L178.280291,17.5443693 L5.38715889,0.00172113703 Z" id="path13816" fill="#2793AD"></path>
                            <path d="M5.378963,0 C7.42219853,21.6604275 15.7426667,37.0812416 23.6148196,47.1519421 C19.2005129,35.2349533 18.5948366,25.099915 18.5948366,25.099915 L155.004781,37.3937509 C155.004781,37.3937509 175.056027,19.8372516 175.238796,17.2369414 L5.378963,0 Z" id="path13818" fill="#063E4C" opacity="0.35840705"></path>
                            <path d="M21.3347228,44.1040543 C30.1567795,56.5198451 39.2378262,62.1350137 39.2378262,62.1350137 C65.5810578,66.232959 166.991271,69.5881926 166.991271,69.5881926 L170.090137,55.3478327 C119.891127,53.8621636 58.2662255,50.7456762 21.3347228,44.1040543 Z" id="path13820" fill="#3AB4D3" opacity="0.30088495"></path>
                        </g>
                        <g id="g13822" transform="translate(56.321341, 54.220898)">
                            <path d="M0,7.86297352 C2.90298445,50.8841868 34.832535,71.6115941 34.832535,71.6115941 C123.986613,79.7606042 212.827609,84.9378664 301.37847,87.0557664 L301.37847,9.01547966 L0,7.86297352 Z" id="path13824" fill="#002028"></path>
                            <path d="M4.95523546,0.00360619186 C6.61080536,40.1572413 33.9326263,67.0643501 41.3835104,67.0643501 L162.258144,76.5852703 L162.258144,11.5943166 L4.95523546,0.00360619186 Z" id="path13826" fill="#2793AD"></path>
                            <path d="M4.94294162,0 C5.9182526,23.6424397 15.8033163,42.6798544 25.279405,54.3490815 C18.879234,36.5567046 19.2095284,21.8472119 19.2095284,21.8472119 L105.26638,34.1410478 L162.253227,34.1410478 L162.253227,11.6023486 L4.94294162,0 Z" id="path13828" fill="#063E4C" opacity="0.35840705"></path>
                            <path d="M21.6420687,49.5339958 C29.4273452,60.6906518 37.7658443,67.0527119 41.3892475,67.0527119 L162.253227,76.5804348 L162.253227,69.1528269 C159.801016,68.8163037 64.8803092,55.7734453 21.6420687,49.5339958 L21.6420687,49.5339958 Z" id="path13830" fill="#1BD2FF" opacity="0.30088495"></path>
                            <path d="M48.4836104,14.8294805 C51.4652754,19.0881472 69.4380439,52.1430756 79.1157515,70.0237223 L88.7713303,70.7920051 C80.0009077,53.2516517 61.9560154,17.4810151 60.1889814,16.5966785 C57.8474154,15.4260594 48.4836104,14.8294805 48.4836104,14.8294805 Z M67.7955875,18.3383052 C70.0420811,23.5802329 85.1815302,51.366515 96.1738587,71.3811257 L104.087811,71.9958175 L74.2236244,18.3383052 L67.7955875,18.3383052 Z" id="path13832" fill="#24A0BE" opacity="0.25663715"></path>
                        </g>
                        <path d="M0,0 C3.3111398,43.0212133 39.7500694,63.7230494 39.7500694,63.7230494 C146.304024,80.5890448 252.264595,90.2060209 357.69981,93.2794799 L357.69981,56.9614397 C246.275038,50.9672931 127.811636,33.3052308 0,0 Z" id="path13834" fill="#002028"></path>
                        <path d="M7.04846592,7.86149826 C13.6715651,38.4941311 36.6028474,55.2541537 39.3369965,57.122243 C50.0678761,64.4520739 350.917711,97.1855594 350.218184,85.2711113 C350.218184,85.2711113 255.00776,52.1547137 250.868015,52.9826626 C246.728271,53.8105295 151.518249,45.5314506 7.04846592,7.86149826 L7.04846592,7.86149826 Z" id="path13836" fill="#2793AD"></path>
                        <path d="M7.04354838,7.86297352 C10.1645435,22.2989693 16.9171378,33.6572443 23.4607368,41.8246132 C17.0605659,26.2457005 18.7702287,16.6842925 20.4897265,17.5442873 C22.832112,18.7152342 120.023081,46.2189219 194.371283,52.6585971 C218.105762,54.7143723 240.723962,55.3955328 260.578507,55.3734859 C255.242162,53.7881547 251.598269,52.8461191 250.871294,52.9915142 C246.731549,53.8193811 151.513332,45.5328439 7.04354838,7.86297352 L7.04354838,7.86297352 Z" id="path13838" fill="#11BBE6"></path>
                        <path d="M22.8206378,41.0050242 C30.3862644,50.6734704 37.8527207,56.0987402 39.3402749,57.1151126 C46.9190149,62.2917191 199.107688,80.137943 287.67576,85.9799738 C289.014149,78.319111 289.776367,71.9701643 289.776367,71.9701643 C289.776367,71.9701643 105.004111,61.2960823 22.8206378,41.0050242 L22.8206378,41.0050242 Z" id="path13840" fill="#1BD2FF" opacity="0.30088495"></path>
                        <path d="M68.7692593,22.9229225 C75.8529675,38.0786814 86.5158212,55.2587434 93.8175401,66.4379382 C98.1851302,67.010667 102.756798,67.6155237 107.468615,68.2052181 L82.2924787,25.9450752 C77.8593215,24.9698462 73.3433858,23.9638006 68.7692593,22.9229225 Z M95.3796769,28.7880657 L117.021746,69.3832954 C119.24693,69.6540056 121.555712,69.9306989 123.834989,70.2028844 L104.241893,30.6577123 C101.322517,30.051954 98.3719965,29.4242308 95.3796769,28.7880657 Z" id="path13842" fill="#1BD2FF" opacity="0.25663715"></path>
                    </g>
                    <g id="g13844" transform="translate(0.000000, 0.000000)">
                        <g id="g13846" transform="translate(107.762394, 112.078830)">
                            <path d="M0,3.80626761 C2.68992351,47.5981173 37.5814273,68.6706607 37.5814273,68.6706607 C59.1687384,73.1074686 155.270153,75.6666713 272.290969,76.1270208 L272.290969,4.9533871 L0,3.80626761 Z" id="path13848" fill="#002028"></path>
                            <path d="M5.72381588,0.00175196431 C10.1135551,44.5734761 41.6925082,63.2582589 41.6925082,63.2582589 C69.681994,67.4296025 177.41391,70.8341697 177.41391,70.8341697 L189.42147,17.8586065 L5.72381588,0.00175196431 Z" id="path13850" fill="#2793AD"></path>
                            <path d="M5.71510781,0 C7.88603021,22.0483875 16.7264651,37.7454037 25.0905685,47.9964806 C20.4004008,35.8660466 19.7568743,25.5494796 19.7568743,25.5494796 L164.691416,38.0635104 C164.691416,38.0635104 185.995715,20.1925567 186.189905,17.5456723 L5.71510781,0 Z" id="path13852" fill="#063E4C" opacity="0.35840705"></path>
                            <path d="M22.6679828,44.8940021 C32.0413518,57.5321721 41.6898958,63.247914 41.6898958,63.247914 C69.6793816,67.4192576 177.426972,70.8345869 177.426972,70.8345869 L180.719494,56.3391678 C127.383422,54.8268889 61.9074271,51.6545821 22.6679828,44.8940021 Z" id="path13854" fill="#3AB4D3" opacity="0.30088495"></path>
                        </g>
                        <g id="g13856" transform="translate(59.841002, 55.192048)">
                            <path d="M7.10542736e-15,8.00380725 C3.08439918,51.7955735 37.009307,72.8942295 37.009307,72.8942295 C131.734846,81.1891965 226.127736,86.4591886 320.212361,88.6150224 L320.212361,9.17695593 L7.10542736e-15,8.00380725 Z" id="path13858" fill="#002028"></path>
                            <path d="M5.26490047,0.00367078237 C7.02393106,40.8764977 36.0531607,68.2655398 43.9696691,68.2655398 L172.39806,77.9569892 L172.39806,11.8019825 L5.26490047,0.00367078237 Z" id="path13860" fill="#2793AD"></path>
                            <path d="M5.25183836,0 C6.28809896,24.0658995 16.7909049,43.4442934 26.859178,55.322528 C20.0590444,37.2114717 20.4099797,22.2385173 20.4099797,22.2385173 L111.844738,34.7525481 L172.392835,34.7525481 L172.392835,11.8101583 L5.25183836,0 Z" id="path13862" fill="#063E4C" opacity="0.35840705"></path>
                            <path d="M22.9945355,50.4211992 C31.2663333,61.7776822 40.125926,68.2536932 43.9757648,68.2536932 L172.392835,77.952067 L172.392835,70.3914233 C169.78738,70.0488726 68.9348414,56.7724036 22.9945355,50.4211992 L22.9945355,50.4211992 Z" id="path13864" fill="#1BD2FF" opacity="0.30088495"></path>
                            <path d="M51.5134721,15.0950914 C54.6814688,19.4300351 73.7774004,53.0770103 84.0598921,71.2779173 L94.3188719,72.0599608 C85.0003639,54.2054422 65.8278012,17.7941175 63.9503408,16.8939416 C61.4624446,15.7023556 51.5134721,15.0950914 51.5134721,15.0950914 Z M72.0323027,18.6667626 C74.4191853,24.0025785 90.5047363,52.2865407 102.184003,72.6596331 L110.592517,73.2853347 L78.8620437,18.6667626 L72.0323027,18.6667626 Z" id="path13866" fill="#24A0BE" opacity="0.25663715"></path>
                        </g>
                        <path d="M0,0 C3.51806118,43.7917663 42.2341503,64.864393 42.2341503,64.864393 C155.446927,82.0324753 268.029238,91.8217011 380.053363,94.9502088 L380.053363,57.9816761 C261.665379,51.8801684 135.798903,33.9017609 0,0 Z" id="path13868" fill="#002028"></path>
                        <path d="M7.48894212,8.00230557 C14.5259353,39.1835996 38.8902506,56.2438109 41.7952635,58.1453596 C53.1967425,65.6064751 372.847433,98.9262501 372.104192,86.7984023 C372.104192,86.7984023 270.94383,53.0888569 266.545383,53.9316352 C262.146936,54.77433 160.987002,46.3469645 7.48894212,8.00230557 L7.48894212,8.00230557 Z" id="path13870" fill="#2793AD"></path>
                        <path d="M7.48371728,8.00380725 C10.7997512,22.6983662 17.9743319,34.2600793 24.9268568,42.5737339 C18.1267232,26.7157872 19.943227,16.9831249 21.7701806,17.8585231 C24.2589476,19.0504428 127.523622,47.0467491 206.518029,53.6017653 C231.735735,55.6943615 255.767402,56.3877223 276.862707,56.3652805 C271.192881,54.7515545 267.321272,53.792646 266.548866,53.9406453 C262.150419,54.7833401 160.981777,46.3483828 7.48371728,8.00380725 L7.48371728,8.00380725 Z" id="path13872" fill="#11BBE6"></path>
                        <path d="M24.2467563,41.7394652 C32.2851778,51.581083 40.2182316,57.1035248 41.7987467,58.1381015 C49.8511011,63.4074262 211.550424,81.5732938 305.653335,87.5199613 C307.075364,79.7218847 307.885214,73.2592221 307.885214,73.2592221 C307.885214,73.2592221 111.56608,62.3939565 24.2467563,41.7394652 L24.2467563,41.7394652 Z" id="path13874" fill="#1BD2FF" opacity="0.30088495"></path>
                        <path d="M73.0668217,23.333495 C80.5932085,38.7607088 91.9224105,56.2484828 99.680432,67.6279082 C104.320964,68.2108952 109.178326,68.8265855 114.184597,69.4268418 L87.4351408,26.4097775 C82.7249446,25.4170811 77.9267968,24.3930163 73.0668217,23.333495 Z M101.340191,29.3036888 L124.334726,70.6260197 C126.698968,70.9015786 129.152032,71.1832278 131.573747,71.4602884 L110.756229,31.2068226 C107.654414,30.5902146 104.519508,29.9512482 101.340191,29.3036888 Z" id="path13876" fill="#1BD2FF" opacity="0.25663715"></path>
                    </g>
                </g>
                <g id="g13878" transform="translate(168.798728, 35.310328)">
                    <path d="M0.231582691,2.0088619 C7.54016912,52.4533662 14.8335394,102.899906 22.151404,153.343125 C213.822451,153.343125 405.493869,153.343125 597.164916,153.343125 C604.504677,102.228321 611.966168,51.1276245 619.200529,0 C412.800229,0 206.399929,0 2.84217094e-14,0 L0.204119359,1.77472681 L0.24123197,2.00900475 L0.231582691,2.0088619 Z" id="path13880" fill="#002028"></path>
                    <polygon id="path13882" fill="#2793AD" points="8.01224153 7.40714701 611.203132 7.40714701 611.203132 7.40714701 589.600253 145.903836 589.600253 145.903836 29.6151211 145.903836 29.6151211 145.903836"></polygon>
                    <path d="M8.02151968,7.39882943 L8.08127098,7.75317481 C18.137304,17.4006975 27.5353304,26.2674424 27.5353304,26.2674424 L587.945773,26.2674424 L611.144123,7.84171116 L611.207215,7.39882943 L8.02151968,7.39882943 L8.02151968,7.39882943 Z" id="path13884" fill="#05CDFF"></path>
                    <path d="M45.3961454,127.431867 C45.3961454,127.431867 36.8543069,136.280373 29.4091461,144.528767 L29.6243992,145.916557 L589.604706,145.916557 L589.604706,145.828024 L568.125041,127.431867 L45.3961454,127.431867 L45.3961454,127.431867 Z" id="path13886" fill="#002028" opacity="0.30973451"></path>
                    <path d="M8.08275549,7.75317124 L29.4091461,144.528767 C36.8543069,136.280373 45.3961454,127.431867 45.3961454,127.431867 L46.3477128,127.431867 C42.9778877,108.182649 36.0690041,68.6270508 28.826107,26.2674389 L27.5368149,26.2674389 C27.5368149,26.2674389 18.1387885,17.4006939 8.08275549,7.75317124 L8.08275549,7.75317124 Z" id="path13888" fill="#002028" opacity="0.07964603"></path>
                    <path d="M611.145608,7.84170758 L589.450689,25.0862995 C581.269214,62.8093403 573.041719,104.783054 568.584495,127.81569 L589.604706,145.828021 L611.145608,7.84170758 L611.145608,7.84170758 Z" id="path13890" fill="#002028" opacity="0.07964603"></path>
                    <path d="M196.553953,26.2674389 C158.293449,58.2823763 113.44954,96.3021179 76.8182795,127.431867 L173.04831,127.431867 L290.144164,26.2674389 L196.553953,26.2674389 L196.553953,26.2674389 Z M309.231179,26.2674389 L199.222721,127.431867 L228.803699,127.431867 L335.558866,26.2674389 L309.231179,26.2674389 L309.231179,26.2674389 Z M449.371367,26.2674389 L354.706746,127.431867 L410.216449,127.431867 L511.724264,26.2674389 L449.371367,26.2674389 L449.371367,26.2674389 Z" id="path13892" fill="#00BBE9" opacity="0.13274339"></path>
                    <path d="M23.0658587,145.572233 C29.5134325,138.890687 48.3595874,123.618686 46.872114,126.959411 C45.3835271,130.300232 31.4971016,150.344778 31.4971016,150.344778 L24.0578788,149.867504 L23.0658587,145.572233 Z" id="path13894" fill="#002028"></path>
                    <path d="M568.614927,127.913958 C573.078832,131.73196 584.485022,148.435684 584.485022,148.435684 L594.900305,145.094959 L568.614927,127.913958 Z" id="path13896" fill="#002028"></path>
                    <path d="M5.20652816,7.13728096 C10.8172126,11.8618242 24.8454084,30.7600076 24.8454084,30.7600076 C24.8454084,30.7600076 40.977518,96.2286989 40.2753474,90.8292032 C39.5742902,85.4298038 29.7550356,27.3853589 29.7550356,27.3853589 L142.677947,26.7104099 L26.9496934,24.6855664 L5.20652816,7.13728096 Z" id="path13898" fill="#88E6FF"></path>
                    <path d="M525.633699,25.3605118 C532.647611,23.3357612 586.654254,23.3357612 586.654254,23.3357612 L610.501333,8.48717545 L591.563881,26.0354609 L576.133571,88.1295035 L585.953197,27.3853589 L525.633699,25.3605118 Z" id="path13900" fill="#88E6FF"></path>
                    <path d="M152.121251,7.39882943 C166.487914,14.3297387 179.981688,20.9852999 190.662326,26.2674389 L283.331402,26.2674389 L227.515149,7.39882943 L152.121251,7.39882943 L152.121251,7.39882943 Z M270.597694,7.39882943 L307.297612,26.2674389 L336.69414,26.2674389 L300.607693,7.39882943 L270.597694,7.39882943 Z M418.471778,7.39882943 C428.74492,12.8203423 442.364135,20.8163519 451.457838,26.2674389 L512.001495,26.2674389 L466.86254,7.39882943 L418.471778,7.39882943 L418.471778,7.39882943 Z" id="path13902" fill="#67DFFF" opacity="0.15929206"></path>
                </g>
            </g>
        </g>
    </g>
</svg>