
<svg width="802px" height="900px" viewBox="0 0 802 900" version="1.1" xmlns="http://www.w3.org/2000/svg" xmlns:xlink="http://www.w3.org/1999/xlink">
    <g id="Page-1" stroke="none" stroke-width="1" fill="none" fill-rule="evenodd">
        <g id="parachute" transform="translate(-887.000000, -1935.000000)" fill-rule="nonzero">
            <g id="g4260" transform="translate(887.945397, 1935.452300)">
                <path d="M293.048153,352.342771 C283.508314,411.672075 298.717469,471.499179 307.370523,530.082991 C326.435713,629.024115 363.683563,767.868046 392.647284,864.44548 C321.772229,747.509682 240.305736,587.111194 181.286054,463.787412 C168.866317,434.503695 152.673294,405.563525 149.507055,373.449422 C120.512788,368.732069 142.268928,404.89484 145.618988,419.312746 C197.659344,543.953202 264.99045,661.547021 331.294039,778.998647 C350.3589,810.265183 367.525405,843.033497 388.543847,873.066008 C371.468217,862.891777 356.55731,846.852372 341.807691,834.701162 C242.231424,736.540698 159.683737,622.488353 82.9338211,506.040452 C59.9134969,469.363377 36.2096358,432.571278 19.8122385,392.33432 C-8.6479153,396.202201 20.9790218,424.20987 25.4062945,439.745 C94.028848,560.898066 177.544407,673.298569 267.855063,779.077995 C308.066731,822.354184 347.187773,870.806168 401.755341,896.31519 C435.459444,908.356202 460.058792,873.905323 482.095507,854.022413 C579.098489,748.582344 659.444737,629.174306 738.945995,510.364998 C758.186805,478.72343 781.502209,448.752494 795.481667,414.393151 C792.408615,393.980956 773.824288,412.231195 774.494039,424.391038 C698.96224,549.227136 614.827435,668.994971 523.991416,783.164497 C495.995237,815.007927 470.119308,851.21945 434.605542,875.010105 C445.416375,859.695373 453.267783,839.102264 464.08344,826.012585 C539.109466,697.14826 610.607577,566.003654 673.80103,430.8976 C684.355689,412.105507 689.37426,391.494878 682.688041,370.751579 C681.708591,365.079508 680.746382,359.400708 679.752154,353.731429 C661.927272,351.625589 664.922309,364.20401 668.365671,377.099444 C676.374975,397.502752 662.887273,416.334582 655.352547,434.706319 C588.950591,573.332137 516.175099,709.029178 437.184362,840.890331 C435.904988,842.734639 425.504583,872.071805 424.148564,874.324409 C451.514426,769.893523 477.522746,635.717685 494.63254,529.210159 C501.255408,477.64988 511.149215,425.798868 508.597843,373.647729 C511.468869,347.924403 478.306543,360.054284 492.767855,372.179849 C496.634797,429.737337 484.19255,487.161267 476.977541,544.127642 C458.771509,654.018453 441.324986,764.547224 410.602678,871.756824 C398.341167,859.821695 390.352506,814.63645 381.719892,788.7981 C349.525857,664.975249 319.084987,539.865812 306.299321,412.330095 C295.355805,395.17956 321.530121,354.95022 296.698175,353.056905 L294.793815,352.660164 L293.048153,352.342771 Z" id="path4262" fill="#221A1A"></path>
                <g id="g4264">
                    <path d="M408.454611,0 C407.05775,0.020012478 405.63249,0.141637571 404.209476,0.359369341 C391.568414,2.69779585 380.158876,9.85044317 369.851657,20.6725373 C317.980738,13.5614051 275.084596,30.4717365 240.196514,60.7830458 C235.486995,58.7660752 225.073361,58.7483012 203.299549,64.8298098 C23.6207696,115.01438 -18.0260187,391.84655 6.35703214,418.36628 C13.8257397,426.395694 13.6404836,420.408261 46.9833681,409.637965 C79.8089017,399.034745 119.67195,413.187183 120.578933,417.056969 C120.614354,417.208048 120.726242,416.855869 120.856652,416.263486 C122.034625,417.463613 123.358193,418.075801 124.824068,418.009149 C124.824068,418.009149 159.758667,386.510027 209.885459,385.635037 C260.012251,384.760047 275.49722,404.887985 287.527783,400.512909 C287.529052,400.396109 287.526513,400.272198 287.527783,400.155778 C314.012827,402.656583 341.19356,373.20998 401.987723,373.21709 C464.618641,373.229786 516.821795,399.405588 524.779237,394.522048 C524.841446,394.483961 524.920985,394.410326 524.977608,394.323741 C535.563676,394.171646 549.431704,384.89221 591.987258,385.635037 C642.11405,386.510027 677.048649,418.009149 677.048649,418.009149 C678.533529,418.076436 679.850723,417.43035 681.016064,416.184138 C681.121312,416.646262 681.244994,416.995776 681.293783,417.056969 C682.200766,413.187183 722.06381,399.034745 754.889343,409.637965 C788.232228,420.408261 788.046972,426.395694 795.515679,418.36628 C819.89873,391.84655 754.240172,101.256652 594.764449,57.1330235 C563.318725,48.4326397 555.515637,52.1386502 554.415832,56.6173229 C523.018009,30.5183299 485.622432,15.5796453 441.66188,19.5219233 C431.551533,7.01802581 420.481022,-0.145412884 408.454611,0 Z" id="path4266" fill="#221A1A"></path>
                    <path d="M408.658644,12.7698306 C408.321966,12.7698306 408.005956,12.7842994 407.66679,12.8109605 C380.948702,18.2143901 358.061005,45.3916315 347.084353,68.037386 C314.164072,138.821921 288.619247,319.384909 297.848725,382.574097 C352.951266,351.867188 421.803447,347.236167 480.984631,369.045146 C491.577237,372.377775 502.071756,376.008246 512.684282,379.281205 C507.839451,284.223831 492.511059,189.627693 465.353013,98.388179 C455.812553,69.6169887 444.717691,39.532806 422.46525,18.0876867 C418.486142,15.1387225 413.708878,12.7031737 408.658644,12.7698306 L408.658644,12.7698306 Z" id="path4268" fill="#14C0EB"></path>
                    <path d="M350.655027,31.0217156 C349.221426,31.0598028 347.764159,31.1029682 346.330544,31.1410554 C297.496355,31.4383894 256.424856,59.6870235 229.093413,93.5881774 C191.607632,140.333347 162.637043,188.734548 143.15919,241.215776 C135.85719,266.600254 124.786539,316.712204 122.732662,368.428007 C123.178219,375.999359 128.050865,389.8909 129.074865,398.444394 C167.007929,373.238673 237.336407,357.618989 278.448063,380.829069 C284.644976,260.474437 301.422459,140.152814 350.655027,31.0217156 L350.655027,31.0217156 Z" id="path4270" fill="#AA0000"></path>
                    <path d="M451.268688,31.0214617 C500.501256,140.152433 517.278739,260.474183 523.475652,380.828815 C564.587308,357.618735 634.915787,373.238419 672.84885,398.44414 C674.073125,384.027377 672.013662,351.192157 670.547749,336.988809 C658.173831,243.679637 632.819023,168.443852 572.790628,93.5879234 C545.459185,59.6867695 504.387685,31.4381355 455.553497,31.1408015 C454.119882,31.1027143 452.70229,31.0595488 451.268688,31.0214617 L451.268688,31.0214617 Z" id="path4272" fill="#008036"></path>
                    <path d="M577.948269,70.0214746 C583.729422,78.4453454 589.380875,86.8972737 594.968482,96.4047251 C645.326603,186.530443 682.050614,300.277074 689.670693,398.126747 C718.562111,389.348919 749.686709,392.937875 777.112533,405.069661 C779.933143,408.043128 785.639188,408.314054 786.316937,402.966994 C790.383367,334.749282 756.953123,264.187557 727.400815,205.072303 C700.549016,148.034323 642.889429,83.1220715 584.137437,71.251437 L577.948269,70.0214746 Z" id="path4274" fill="#FFCC00"></path>
                    <path d="M215.009087,81.5667176 L208.819919,82.7965529 C150.067927,94.6670605 93.6382385,148.034323 66.7864395,205.072303 C37.2341317,264.187557 11.5006741,334.749282 15.5671038,402.966994 C16.2448526,408.314054 21.9508977,408.043128 24.771508,405.069661 C52.1973318,392.937748 83.3615986,389.348919 112.253023,398.126747 C112.973607,388.873591 113.863247,379.589965 114.950865,370.275489 C115.662702,362.510908 116.759816,356.650686 117.246304,348.142896 C117.696698,340.266211 131.411031,276.601315 130.140405,280.832929 C144.590773,225.417718 169.622754,158.645541 197.9492,107.949968 C203.536807,98.4423897 209.227934,89.9907153 215.009087,81.5667176 Z" id="path4276" fill="#FFCC00"></path>
                    <path d="M408.652982,12.7773168 C408.316304,12.7773168 408.000294,12.7900125 407.661128,12.8166735 C380.94304,18.2201032 358.055343,45.3973446 347.078691,68.043099 C341.183746,80.7182619 335.521489,96.9632102 330.256849,115.374304 C347.446169,93.7321469 378.416387,56.3378899 400.678476,46.6586653 C422.113832,37.3389839 452.945591,82.7646867 468.243564,108.352042 C467.288541,105.030204 466.333504,101.706843 465.347351,98.3937651 C455.806891,69.6227018 444.712029,39.5385191 422.459588,18.0932728 C418.48048,15.1443087 413.703216,12.7087598 408.652982,12.7769359 L408.652982,12.7773168 Z" id="path4278" fill="#8CE0F5" opacity="0.83628319"></path>
                    <path d="M350.649365,31.0274286 C349.215763,31.0655158 347.758497,31.1086813 346.324882,31.1467685 C297.490693,31.4441025 256.419194,59.6927365 229.08775,93.5938904 C211.305959,115.767872 195.439559,138.297333 181.597785,161.476308 C214.09775,131.777187 278.254072,78.5351042 301.929501,67.1709024 C326.300479,55.4728028 318.821056,102.998633 317.204051,122.556025 C326.244389,91.3701064 337.228709,60.7764441 350.649365,31.0274286 L350.649365,31.0274286 Z" id="path4280" fill="#E70000"></path>
                    <path d="M451.263025,31.0271747 C459.30172,48.8462666 466.442383,66.9743725 472.845766,85.341412 C471.93693,70.7098371 472.529706,57.4987874 477.606665,56.9347162 C489.148823,55.6521935 531.471474,73.5752634 584.052426,138.980871 C607.806239,168.528278 614.272314,165.605341 613.173257,152.827088 C601.816749,132.846675 588.51071,113.203715 572.784966,93.5936365 C545.453522,59.6924826 504.382023,31.4438486 455.547834,31.1465146 C454.11422,31.1084274 452.696627,31.0652619 451.263025,31.0271747 L451.263025,31.0271747 Z" id="path4282" fill="#00B04A"></path>
                    <path d="M577.942606,70.0271877 C583.723759,78.4510585 589.375213,86.9028599 594.962819,96.4104381 C596.257923,98.7282976 597.534403,101.084371 598.811212,103.432827 C617.529137,110.080185 670.432142,136.535293 711.009726,187.740346 C719.558193,198.527654 728.481895,211.467523 737.472389,225.54988 C734.098651,218.608109 730.729585,211.747971 727.395153,205.078016 C700.543354,148.040036 642.883766,83.1276576 584.131775,71.2570231 L577.942606,70.0271877 Z" id="path4284" fill="#FFFF00" opacity="0.87168124"></path>
                    <path d="M215.003425,81.5723037 L208.814257,82.802266 C150.062265,94.6727736 93.6325762,148.040036 66.7807721,205.078016 C63.4566872,211.727277 60.1717305,218.551105 56.9812555,225.470532 C110.89138,160.640929 168.191336,123.455009 181.35974,115.930123 C189.984064,111.001895 185.575599,127.370499 178.820594,145.011343 C184.792653,132.464915 191.156489,120.102321 197.943538,107.955681 C203.531144,98.4481028 209.222272,89.9963014 215.003425,81.5723037 Z" id="path4286" fill="#FFFF00" opacity="0.87168124"></path>
                    <path d="M163.863438,178.773987 C162.837394,179.976272 162.206048,180.871829 162.117775,181.313133 C161.944173,182.18114 162.580572,181.334715 163.625393,179.408773 C163.710835,179.199801 163.777818,178.982958 163.863438,178.773987 Z" id="path4288" fill="#FFFFFF" opacity="0.22123892"></path>
                    <path d="M326.210085,93.6729848 C299.875624,134.152177 281.035631,163.825526 262.334693,226.660757 C239.663751,302.835137 244.203604,349.095203 244.203604,349.095203 C244.203604,349.095203 213.376785,337.283603 175.289595,345.44518 C152.104754,350.413273 134.295654,364.087336 123.911562,374.050184 C126.233802,383.310576 128.541873,392.240245 129.069202,398.449853 C167.002266,373.244132 237.330745,357.624448 278.442401,380.834528 C283.474569,283.101148 295.510654,185.387954 326.210085,93.6729848 Z M479.431676,105.019794 C507.415858,193.429175 518.644584,287.116934 523.46999,380.834528 C564.581645,357.624448 634.910124,373.244132 672.843188,398.449853 C673.03238,396.222006 673.113912,393.525433 673.160581,390.554633 C667.631134,380.426106 655.825654,365.905238 631.423369,358.14091 C591.522492,345.44518 550.726135,342.747338 550.726135,342.747338 C550.726135,342.747338 547.093112,326.395872 543.465765,293.749691 C540.243309,264.747566 507.64819,157.791119 479.431676,105.019794 Z M611.308572,127.475366 C653.160807,211.780345 682.896505,311.217619 689.66503,398.13246 C718.556449,389.354632 749.681047,392.943461 777.106871,405.075374 C779.14503,407.223872 782.698438,407.959844 784.763983,406.18625 C778.552,397.694711 770.485121,388.56572 761.991017,382.619801 C743.854253,369.924071 715.770625,363.576206 715.770625,363.576206 C715.770625,363.576206 716.643457,358.146497 710.295592,327.314028 C704.860016,300.912622 642.286343,174.195145 611.308572,127.475366 Z M175.170572,152.787478 C118.302525,215.513779 89.1173221,305.612201 89.1173221,343.65978 C89.1173221,356.261942 89.8272165,368.484122 90.7836417,379.406258 C77.657953,376.700036 60.9594244,374.465461 46.5072783,376.271936 C34.8375156,377.730676 24.0698226,384.46868 15.1646948,392.419381 C15.2195785,395.943589 15.3519822,399.459037 15.5614364,402.972707 C16.2391852,408.319768 21.9452303,408.048714 24.7658406,405.075374 C52.1916644,392.943461 83.3559363,389.354632 112.24736,398.13246 C113.420446,383.068849 115.106883,367.913322 117.246304,352.705488 C117.246304,352.692792 117.246279,352.677557 117.246304,352.666131 C117.272965,336.291813 135.883331,256.895003 140.971449,243.720898 C150.216683,212.815301 161.575591,182.336408 175.170572,152.787478 L175.170572,152.787478 Z M387.427308,323.981398 C361.246859,324.397818 330.565546,329.414536 296.018052,343.382124 C295.797057,358.894402 296.341755,372.301474 297.843063,382.580191 C352.945604,351.873282 421.797785,347.242134 480.978968,369.05124 C491.571575,372.383742 502.066094,376.014213 512.678619,379.287172 C512.264535,371.162667 511.739097,363.04324 511.171001,354.92724 C503.007469,350.067315 490.579759,343.643783 475.424587,339.097315 C459.271543,334.251355 429.052861,323.319316 387.427308,323.981398 Z" id="path4290" fill="#000000" opacity="0.16814156"></path>
                </g>
            </g>
        </g>
    </g>
</svg>