<svg xmlns="http://www.w3.org/2000/svg" xmlns:xlink="http://www.w3.org/1999/xlink" viewBox="0 0 336.58 344.34"><defs><style>.cls-1{fill:#c5c6d1;stroke:#1d1d1b;}.cls-1,.cls-3,.cls-4,.cls-5,.cls-6,.cls-7,.cls-8,.cls-9{stroke-miterlimit:10;}.cls-2,.cls-5,.cls-7{fill:none;}.cls-3,.cls-4{stroke-width:0.75px;}.cls-3{fill:url(#linear-gradient);stroke:url(#linear-gradient-2);}.cls-4{fill:url(#linear-gradient-3);stroke:url(#linear-gradient-4);}.cls-5{stroke:#a22c16;}.cls-6{fill:url(#linear-gradient-5);stroke:url(#linear-gradient-6);}.cls-7{stroke:url(#linear-gradient-7);}.cls-8{fill:#d02b17;stroke:#d02b17;}.cls-9{fill:#fff;stroke:#fff;stroke-width:2px;}</style><linearGradient id="linear-gradient" x1="23.78" y1="239.99" x2="82.83" y2="299.04" gradientUnits="userSpaceOnUse"><stop offset="0.04" stop-color="#d2d0d1"/><stop offset="0.19" stop-color="#e4e3e3"/><stop offset="0.41" stop-color="#f8f7f8"/><stop offset="0.55" stop-color="#fff"/><stop offset="0.65" stop-color="#fbfbfa"/><stop offset="0.76" stop-color="#ededed"/><stop offset="0.87" stop-color="#d7d7d7"/><stop offset="0.98" stop-color="#b9b9b8"/><stop offset="1" stop-color="#b3b3b2"/></linearGradient><linearGradient id="linear-gradient-2" x1="23.47" y1="239.69" x2="83.14" y2="299.36" gradientUnits="userSpaceOnUse"><stop offset="0.04" stop-color="#d2d0d1"/><stop offset="0.07" stop-color="#c7c5c6"/><stop offset="0.19" stop-color="#8b8a89"/><stop offset="0.31" stop-color="#5b5b5a"/><stop offset="0.41" stop-color="#393938"/><stop offset="0.5" stop-color="#252423"/><stop offset="0.55" stop-color="#1d1d1b"/><stop offset="0.62" stop-color="#222220"/><stop offset="0.69" stop-color="#2f2f2d"/><stop offset="0.77" stop-color="#454543"/><stop offset="0.85" stop-color="#646462"/><stop offset="0.93" stop-color="#8b8b8a"/><stop offset="1" stop-color="#b3b3b2"/></linearGradient><linearGradient id="linear-gradient-3" x1="253.75" y1="299.04" x2="312.8" y2="239.99" xlink:href="#linear-gradient"/><linearGradient id="linear-gradient-4" x1="229.76" y1="216.01" x2="336.79" y2="323.04" xlink:href="#linear-gradient-2"/><linearGradient id="linear-gradient-5" x1="92.19" y1="172.42" x2="233.52" y2="152.56" xlink:href="#linear-gradient"/><linearGradient id="linear-gradient-6" x1="72.2" y1="84.46" x2="264.25" y2="276.51" xlink:href="#linear-gradient-2"/><linearGradient id="linear-gradient-7" x1="136.39" y1="89.57" x2="198.87" y2="152.05" xlink:href="#linear-gradient-2"/></defs><g id="Layer_2" data-name="Layer 2"><g id="Layer_1-2" data-name="Layer 1"><polygon class="cls-1" points="224.34 341.7 114.88 341.7 121.47 314.01 219.07 314.01 224.34 341.7"/><rect class="cls-2" x="72.02" y="333.79" width="10.55" height="10.55"/><polygon class="cls-3" points="0.38 263.39 1.87 324.17 106.3 275.58 101.69 211.8 0.38 263.39"/><polygon class="cls-4" points="336.2 263.39 334.72 324.17 230.29 275.58 234.89 211.8 336.2 263.39"/><line class="cls-5" x1="111.58" y1="95.09" x2="224.34" y2="94.43"/><path class="cls-6" d="M224.47,315.39c6.94-32.27,10.89-71.08,10.66-112.82C234.53,90.77,204.22.3,167.44.5s-66.11,91-65.5,202.79c.22,41.75,4.59,80.51,11.89,112.7Z"/><line class="cls-7" x1="105.65" y1="120.81" x2="229.62" y2="120.81"/><polygon class="cls-8" points="229.33 285.58 108.95 286.32 104.99 250.71 232.91 250.71 229.33 285.58"/><polygon class="cls-9" points="230.17 269.99 108.3 270.49 106.31 262.58 231.49 262.08 230.17 269.99"/></g></g></svg>